<svg xmlns="http://www.w3.org/2000/svg"  viewBox="0 0 40 40" width="40px" height="40px"><polygon fill="#b0c1d4" points="18.5,23.591 9.5,26.5 9.5,0.5 18.506,6.5"/><polygon fill="#b0c1d4" points="21.5,23.591 30.5,26.5 30.5,0.5 21.5,6.5"/><polygon fill="none" stroke="#66798f" stroke-linejoin="round" stroke-miterlimit="10" points="18.5,23.591 9.5,26.5 9.5,0.5 18.506,6.5"/><polygon fill="none" stroke="#66798f" stroke-linejoin="round" stroke-miterlimit="10" points="21.5,23.591 30.5,26.5 30.5,0.5 21.5,6.5"/><polygon fill="#66798f" points="17.818,31 18.994,31 18.994,39 20.994,39 20.994,31 22.17,31 22.994,29 16.994,29"/><path fill="#66798f" d="M12.994,29h-3v10h3c1.103,0,2-0.897,2-2v-2c0-0.366-0.106-0.705-0.278-1 c0.172-0.295,0.278-0.634,0.278-1v-2C14.994,29.897,14.097,29,12.994,29z M11.994,31h1l0.001,2h-0.001h-1V31z M11.994,37v-2h1 l0.001,2H11.994z"/><path fill="#66798f" d="M29.994,32v-1c0-1.103-0.897-2-2-2h-1c-1.103,0-2,0.897-2,2v1.465c0,0.67,0.333,1.292,0.891,1.664 l2.109,1.406V37h-1v-1h-2v1c0,1.103,0.897,2,2,2h1c1.103,0,2-0.897,2-2v-1.465c0-0.67-0.333-1.292-0.891-1.664l-2.109-1.406V31h1v1 H29.994z"/></svg>